<mxfile host="app.diagrams.net" modified="2020-11-26T20:39:37.765Z" agent="5.0 (Windows)" etag="dKmoTeTOAzmPC2JHiNcD" version="13.10.4" type="github" pages="2">
  <diagram id="C5RBs43oDa-KdzZeNtuy" name="Main Progression">
    <mxGraphModel dx="700" dy="790" grid="1" gridSize="8" guides="1" tooltips="1" connect="1" arrows="1" fold="1" page="1" pageScale="1" pageWidth="827" pageHeight="1169" math="0" shadow="0">
      <root>
        <mxCell id="WIyWlLk6GJQsqaUBKTNV-0" />
        <mxCell id="WIyWlLk6GJQsqaUBKTNV-1" parent="WIyWlLk6GJQsqaUBKTNV-0" />
        <mxCell id="9jG_yCGPaiIPfnbP8sXY-6" style="edgeStyle=orthogonalEdgeStyle;rounded=0;orthogonalLoop=1;jettySize=auto;html=1;" parent="WIyWlLk6GJQsqaUBKTNV-1" source="9jG_yCGPaiIPfnbP8sXY-0" target="9jG_yCGPaiIPfnbP8sXY-5" edge="1">
          <mxGeometry relative="1" as="geometry" />
        </mxCell>
        <mxCell id="9jG_yCGPaiIPfnbP8sXY-12" style="edgeStyle=orthogonalEdgeStyle;rounded=0;orthogonalLoop=1;jettySize=auto;html=1;exitX=0.5;exitY=1;exitDx=0;exitDy=0;" parent="WIyWlLk6GJQsqaUBKTNV-1" source="9jG_yCGPaiIPfnbP8sXY-0" target="9jG_yCGPaiIPfnbP8sXY-9" edge="1">
          <mxGeometry relative="1" as="geometry">
            <Array as="points">
              <mxPoint x="92" y="440" />
              <mxPoint x="556" y="440" />
            </Array>
          </mxGeometry>
        </mxCell>
        <mxCell id="9jG_yCGPaiIPfnbP8sXY-0" value="Moon - Starting Dimension" style="rounded=0;whiteSpace=wrap;html=1;" parent="WIyWlLk6GJQsqaUBKTNV-1" vertex="1">
          <mxGeometry x="32" y="32" width="120" height="60" as="geometry" />
        </mxCell>
        <mxCell id="9jG_yCGPaiIPfnbP8sXY-1" value="" style="endArrow=none;html=1;fillColor=#f8cecc;strokeColor=#b85450;" parent="WIyWlLk6GJQsqaUBKTNV-1" edge="1">
          <mxGeometry width="50" height="50" relative="1" as="geometry">
            <mxPoint y="416" as="sourcePoint" />
            <mxPoint x="1256" y="416" as="targetPoint" />
          </mxGeometry>
        </mxCell>
        <mxCell id="9jG_yCGPaiIPfnbP8sXY-3" style="edgeStyle=orthogonalEdgeStyle;rounded=0;orthogonalLoop=1;jettySize=auto;html=1;" parent="WIyWlLk6GJQsqaUBKTNV-1" source="9jG_yCGPaiIPfnbP8sXY-2" target="9jG_yCGPaiIPfnbP8sXY-4" edge="1">
          <mxGeometry relative="1" as="geometry">
            <mxPoint x="1068" y="518" as="targetPoint" />
          </mxGeometry>
        </mxCell>
        <mxCell id="9jG_yCGPaiIPfnbP8sXY-14" style="edgeStyle=orthogonalEdgeStyle;rounded=0;orthogonalLoop=1;jettySize=auto;html=1;exitX=0;exitY=0.5;exitDx=0;exitDy=0;entryX=1;entryY=0.5;entryDx=0;entryDy=0;" parent="WIyWlLk6GJQsqaUBKTNV-1" source="9jG_yCGPaiIPfnbP8sXY-2" target="9jG_yCGPaiIPfnbP8sXY-13" edge="1">
          <mxGeometry relative="1" as="geometry" />
        </mxCell>
        <mxCell id="9jG_yCGPaiIPfnbP8sXY-2" value="LV Voltage" style="rounded=1;whiteSpace=wrap;html=1;" parent="WIyWlLk6GJQsqaUBKTNV-1" vertex="1">
          <mxGeometry x="1008" y="310" width="120" height="60" as="geometry" />
        </mxCell>
        <mxCell id="63BNSrlgMApztNrJTurx-29" value="" style="edgeStyle=orthogonalEdgeStyle;rounded=0;orthogonalLoop=1;jettySize=auto;html=1;" parent="WIyWlLk6GJQsqaUBKTNV-1" source="9jG_yCGPaiIPfnbP8sXY-4" target="63BNSrlgMApztNrJTurx-28" edge="1">
          <mxGeometry relative="1" as="geometry" />
        </mxCell>
        <mxCell id="9jG_yCGPaiIPfnbP8sXY-4" value="MV Voltage" style="rounded=1;whiteSpace=wrap;html=1;" parent="WIyWlLk6GJQsqaUBKTNV-1" vertex="1">
          <mxGeometry x="1008" y="438" width="120" height="60" as="geometry" />
        </mxCell>
        <mxCell id="PfsHNtGs94x8KEguIsHO-8" value="" style="edgeStyle=orthogonalEdgeStyle;rounded=0;orthogonalLoop=1;jettySize=auto;html=1;" parent="WIyWlLk6GJQsqaUBKTNV-1" source="9jG_yCGPaiIPfnbP8sXY-5" target="PfsHNtGs94x8KEguIsHO-7" edge="1">
          <mxGeometry relative="1" as="geometry" />
        </mxCell>
        <mxCell id="9jG_yCGPaiIPfnbP8sXY-5" value="Next Planet (2 options, varying resource availability&lt;br&gt;" style="rounded=0;whiteSpace=wrap;html=1;" parent="WIyWlLk6GJQsqaUBKTNV-1" vertex="1">
          <mxGeometry x="32" y="472" width="120" height="60" as="geometry" />
        </mxCell>
        <mxCell id="9jG_yCGPaiIPfnbP8sXY-7" value="" style="endArrow=none;html=1;fillColor=#f8cecc;strokeColor=#b85450;" parent="WIyWlLk6GJQsqaUBKTNV-1" edge="1">
          <mxGeometry width="50" height="50" relative="1" as="geometry">
            <mxPoint x="480" y="1098" as="sourcePoint" />
            <mxPoint x="480" y="418" as="targetPoint" />
          </mxGeometry>
        </mxCell>
        <mxCell id="PfsHNtGs94x8KEguIsHO-10" value="" style="edgeStyle=orthogonalEdgeStyle;rounded=0;orthogonalLoop=1;jettySize=auto;html=1;" parent="WIyWlLk6GJQsqaUBKTNV-1" source="9jG_yCGPaiIPfnbP8sXY-9" target="PfsHNtGs94x8KEguIsHO-9" edge="1">
          <mxGeometry relative="1" as="geometry" />
        </mxCell>
        <mxCell id="9jG_yCGPaiIPfnbP8sXY-9" value="Next Planet (2 options, varying resource availability&lt;br&gt;" style="rounded=0;whiteSpace=wrap;html=1;" parent="WIyWlLk6GJQsqaUBKTNV-1" vertex="1">
          <mxGeometry x="496" y="472" width="120" height="60" as="geometry" />
        </mxCell>
        <mxCell id="9jG_yCGPaiIPfnbP8sXY-13" value="AE&lt;br&gt;&lt;div&gt;1k &amp;amp; 4k Storage&lt;/div&gt;&lt;div&gt;Autocrafting Interfaces&lt;br&gt;&lt;/div&gt;" style="ellipse;whiteSpace=wrap;html=1;" parent="WIyWlLk6GJQsqaUBKTNV-1" vertex="1">
          <mxGeometry x="856" y="300" width="120" height="80" as="geometry" />
        </mxCell>
        <mxCell id="PfsHNtGs94x8KEguIsHO-2" style="edgeStyle=orthogonalEdgeStyle;rounded=0;orthogonalLoop=1;jettySize=auto;html=1;exitX=0.5;exitY=1;exitDx=0;exitDy=0;entryX=0.5;entryY=0;entryDx=0;entryDy=0;" parent="WIyWlLk6GJQsqaUBKTNV-1" source="PfsHNtGs94x8KEguIsHO-0" target="PfsHNtGs94x8KEguIsHO-1" edge="1">
          <mxGeometry relative="1" as="geometry" />
        </mxCell>
        <mxCell id="PfsHNtGs94x8KEguIsHO-4" style="edgeStyle=orthogonalEdgeStyle;rounded=0;orthogonalLoop=1;jettySize=auto;html=1;exitX=0.5;exitY=1;exitDx=0;exitDy=0;entryX=0.5;entryY=0;entryDx=0;entryDy=0;" parent="WIyWlLk6GJQsqaUBKTNV-1" source="PfsHNtGs94x8KEguIsHO-0" target="PfsHNtGs94x8KEguIsHO-3" edge="1">
          <mxGeometry relative="1" as="geometry" />
        </mxCell>
        <mxCell id="PfsHNtGs94x8KEguIsHO-6" style="edgeStyle=orthogonalEdgeStyle;rounded=0;orthogonalLoop=1;jettySize=auto;html=1;exitX=0.5;exitY=1;exitDx=0;exitDy=0;" parent="WIyWlLk6GJQsqaUBKTNV-1" source="PfsHNtGs94x8KEguIsHO-0" target="PfsHNtGs94x8KEguIsHO-5" edge="1">
          <mxGeometry relative="1" as="geometry" />
        </mxCell>
        <mxCell id="PfsHNtGs94x8KEguIsHO-0" value="Power Options" style="rounded=0;whiteSpace=wrap;html=1;" parent="WIyWlLk6GJQsqaUBKTNV-1" vertex="1">
          <mxGeometry x="280" y="136" width="120" height="60" as="geometry" />
        </mxCell>
        <mxCell id="PfsHNtGs94x8KEguIsHO-1" value="Oil" style="rounded=0;whiteSpace=wrap;html=1;" parent="WIyWlLk6GJQsqaUBKTNV-1" vertex="1">
          <mxGeometry x="144" y="240" width="120" height="60" as="geometry" />
        </mxCell>
        <mxCell id="PfsHNtGs94x8KEguIsHO-3" value="Fission Reactors" style="rounded=0;whiteSpace=wrap;html=1;" parent="WIyWlLk6GJQsqaUBKTNV-1" vertex="1">
          <mxGeometry x="280" y="240" width="120" height="60" as="geometry" />
        </mxCell>
        <mxCell id="PfsHNtGs94x8KEguIsHO-5" value="Molten Salt Reactors" style="rounded=0;whiteSpace=wrap;html=1;" parent="WIyWlLk6GJQsqaUBKTNV-1" vertex="1">
          <mxGeometry x="280" y="320" width="120" height="60" as="geometry" />
        </mxCell>
        <mxCell id="PfsHNtGs94x8KEguIsHO-7" value="Volcano World" style="ellipse;whiteSpace=wrap;html=1;rounded=0;" parent="WIyWlLk6GJQsqaUBKTNV-1" vertex="1">
          <mxGeometry x="32" y="545" width="120" height="80" as="geometry" />
        </mxCell>
        <mxCell id="PfsHNtGs94x8KEguIsHO-9" value="Air Planet" style="ellipse;whiteSpace=wrap;html=1;rounded=0;" parent="WIyWlLk6GJQsqaUBKTNV-1" vertex="1">
          <mxGeometry x="496" y="545" width="120" height="80" as="geometry" />
        </mxCell>
        <mxCell id="63BNSrlgMApztNrJTurx-11" style="edgeStyle=orthogonalEdgeStyle;rounded=0;orthogonalLoop=1;jettySize=auto;html=1;exitX=0.5;exitY=1;exitDx=0;exitDy=0;" parent="WIyWlLk6GJQsqaUBKTNV-1" source="63BNSrlgMApztNrJTurx-0" target="63BNSrlgMApztNrJTurx-4" edge="1">
          <mxGeometry relative="1" as="geometry" />
        </mxCell>
        <mxCell id="63BNSrlgMApztNrJTurx-12" style="edgeStyle=orthogonalEdgeStyle;rounded=0;orthogonalLoop=1;jettySize=auto;html=1;exitX=0.5;exitY=1;exitDx=0;exitDy=0;" parent="WIyWlLk6GJQsqaUBKTNV-1" source="63BNSrlgMApztNrJTurx-0" target="63BNSrlgMApztNrJTurx-5" edge="1">
          <mxGeometry relative="1" as="geometry" />
        </mxCell>
        <mxCell id="63BNSrlgMApztNrJTurx-14" style="edgeStyle=orthogonalEdgeStyle;rounded=0;orthogonalLoop=1;jettySize=auto;html=1;exitX=0.5;exitY=1;exitDx=0;exitDy=0;entryX=0.5;entryY=0;entryDx=0;entryDy=0;" parent="WIyWlLk6GJQsqaUBKTNV-1" source="63BNSrlgMApztNrJTurx-0" target="63BNSrlgMApztNrJTurx-13" edge="1">
          <mxGeometry relative="1" as="geometry" />
        </mxCell>
        <mxCell id="63BNSrlgMApztNrJTurx-0" value="Power Options" style="rounded=0;whiteSpace=wrap;html=1;" parent="WIyWlLk6GJQsqaUBKTNV-1" vertex="1">
          <mxGeometry x="208" y="560" width="120" height="60" as="geometry" />
        </mxCell>
        <mxCell id="63BNSrlgMApztNrJTurx-4" value="Oil" style="rounded=0;whiteSpace=wrap;html=1;" parent="WIyWlLk6GJQsqaUBKTNV-1" vertex="1">
          <mxGeometry x="72" y="676" width="120" height="60" as="geometry" />
        </mxCell>
        <mxCell id="63BNSrlgMApztNrJTurx-9" style="edgeStyle=orthogonalEdgeStyle;rounded=0;orthogonalLoop=1;jettySize=auto;html=1;exitX=0.5;exitY=1;exitDx=0;exitDy=0;entryX=0.5;entryY=0;entryDx=0;entryDy=0;" parent="WIyWlLk6GJQsqaUBKTNV-1" source="63BNSrlgMApztNrJTurx-5" target="63BNSrlgMApztNrJTurx-6" edge="1">
          <mxGeometry relative="1" as="geometry" />
        </mxCell>
        <mxCell id="63BNSrlgMApztNrJTurx-5" value="Fission Reactors" style="rounded=0;whiteSpace=wrap;html=1;" parent="WIyWlLk6GJQsqaUBKTNV-1" vertex="1">
          <mxGeometry x="208" y="676" width="120" height="60" as="geometry" />
        </mxCell>
        <mxCell id="63BNSrlgMApztNrJTurx-6" value="Molten Salt Reactors" style="rounded=0;whiteSpace=wrap;html=1;" parent="WIyWlLk6GJQsqaUBKTNV-1" vertex="1">
          <mxGeometry x="208" y="756" width="120" height="60" as="geometry" />
        </mxCell>
        <mxCell id="63BNSrlgMApztNrJTurx-13" value="&lt;div&gt;Planet Specific:&lt;/div&gt;&lt;div&gt;Geothermal Gen&lt;/div&gt;&lt;div&gt;(Requires Non-Harvestable Worldgen Blocks)&lt;br&gt;Produces heat, steam if provided with water&lt;br&gt;&lt;/div&gt;" style="rounded=0;whiteSpace=wrap;html=1;" parent="WIyWlLk6GJQsqaUBKTNV-1" vertex="1">
          <mxGeometry x="342" y="676" width="120" height="140" as="geometry" />
        </mxCell>
        <mxCell id="63BNSrlgMApztNrJTurx-16" style="edgeStyle=orthogonalEdgeStyle;rounded=0;orthogonalLoop=1;jettySize=auto;html=1;exitX=0.5;exitY=1;exitDx=0;exitDy=0;entryX=0.5;entryY=0;entryDx=0;entryDy=0;" parent="WIyWlLk6GJQsqaUBKTNV-1" source="63BNSrlgMApztNrJTurx-19" target="63BNSrlgMApztNrJTurx-20" edge="1">
          <mxGeometry relative="1" as="geometry" />
        </mxCell>
        <mxCell id="63BNSrlgMApztNrJTurx-17" style="edgeStyle=orthogonalEdgeStyle;rounded=0;orthogonalLoop=1;jettySize=auto;html=1;exitX=0.5;exitY=1;exitDx=0;exitDy=0;entryX=0.5;entryY=0;entryDx=0;entryDy=0;" parent="WIyWlLk6GJQsqaUBKTNV-1" source="63BNSrlgMApztNrJTurx-19" target="63BNSrlgMApztNrJTurx-21" edge="1">
          <mxGeometry relative="1" as="geometry" />
        </mxCell>
        <mxCell id="63BNSrlgMApztNrJTurx-18" style="edgeStyle=orthogonalEdgeStyle;rounded=0;orthogonalLoop=1;jettySize=auto;html=1;exitX=0.5;exitY=1;exitDx=0;exitDy=0;" parent="WIyWlLk6GJQsqaUBKTNV-1" source="63BNSrlgMApztNrJTurx-19" target="63BNSrlgMApztNrJTurx-22" edge="1">
          <mxGeometry relative="1" as="geometry" />
        </mxCell>
        <mxCell id="63BNSrlgMApztNrJTurx-27" style="edgeStyle=orthogonalEdgeStyle;rounded=0;orthogonalLoop=1;jettySize=auto;html=1;exitX=0.5;exitY=1;exitDx=0;exitDy=0;entryX=0.5;entryY=0;entryDx=0;entryDy=0;" parent="WIyWlLk6GJQsqaUBKTNV-1" source="63BNSrlgMApztNrJTurx-19" target="63BNSrlgMApztNrJTurx-25" edge="1">
          <mxGeometry relative="1" as="geometry" />
        </mxCell>
        <mxCell id="63BNSrlgMApztNrJTurx-19" value="Power Options" style="rounded=0;whiteSpace=wrap;html=1;" parent="WIyWlLk6GJQsqaUBKTNV-1" vertex="1">
          <mxGeometry x="648" y="568" width="120" height="60" as="geometry" />
        </mxCell>
        <mxCell id="63BNSrlgMApztNrJTurx-20" value="Oil" style="rounded=0;whiteSpace=wrap;html=1;" parent="WIyWlLk6GJQsqaUBKTNV-1" vertex="1">
          <mxGeometry x="512" y="672" width="120" height="60" as="geometry" />
        </mxCell>
        <mxCell id="63BNSrlgMApztNrJTurx-21" value="Fission Reactors" style="rounded=0;whiteSpace=wrap;html=1;" parent="WIyWlLk6GJQsqaUBKTNV-1" vertex="1">
          <mxGeometry x="648" y="672" width="120" height="60" as="geometry" />
        </mxCell>
        <mxCell id="63BNSrlgMApztNrJTurx-22" value="Molten Salt Reactors" style="rounded=0;whiteSpace=wrap;html=1;" parent="WIyWlLk6GJQsqaUBKTNV-1" vertex="1">
          <mxGeometry x="648" y="752" width="120" height="60" as="geometry" />
        </mxCell>
        <mxCell id="63BNSrlgMApztNrJTurx-25" value="&lt;div&gt;Gas Flume Turbine&lt;/div&gt;&lt;div&gt;Require Non Harvestable Worldgen Blocks&lt;/div&gt;&lt;div&gt;Requires Turbines, Produces energy and various gases&lt;br&gt;&lt;/div&gt;" style="rounded=0;whiteSpace=wrap;html=1;" parent="WIyWlLk6GJQsqaUBKTNV-1" vertex="1">
          <mxGeometry x="784" y="672" width="120" height="144" as="geometry" />
        </mxCell>
        <mxCell id="63BNSrlgMApztNrJTurx-28" value="Wireless AE" style="ellipse;whiteSpace=wrap;html=1;rounded=1;" parent="WIyWlLk6GJQsqaUBKTNV-1" vertex="1">
          <mxGeometry x="856" y="428" width="120" height="80" as="geometry" />
        </mxCell>
      </root>
    </mxGraphModel>
  </diagram>
  <diagram id="0LybqyR-AyQThk4z4YFw" name="Oil Processing">
    <mxGraphModel dx="700" dy="1890" grid="1" gridSize="10" guides="1" tooltips="1" connect="1" arrows="1" fold="1" page="1" pageScale="1" pageWidth="850" pageHeight="1100" math="0" shadow="0">
      <root>
        <mxCell id="2rJDywC0FNHvMGEqk1eh-0" />
        <mxCell id="2rJDywC0FNHvMGEqk1eh-1" parent="2rJDywC0FNHvMGEqk1eh-0" />
        <mxCell id="aVaaEnOwZpLvD6cCBPxw-67" style="edgeStyle=orthogonalEdgeStyle;rounded=0;orthogonalLoop=1;jettySize=auto;html=1;exitX=0.5;exitY=1;exitDx=0;exitDy=0;entryX=0.5;entryY=0;entryDx=0;entryDy=0;" edge="1" parent="2rJDywC0FNHvMGEqk1eh-1" source="aVaaEnOwZpLvD6cCBPxw-0" target="aVaaEnOwZpLvD6cCBPxw-62">
          <mxGeometry relative="1" as="geometry" />
        </mxCell>
        <mxCell id="aVaaEnOwZpLvD6cCBPxw-0" value="Oil" style="rounded=0;whiteSpace=wrap;html=1;" vertex="1" parent="2rJDywC0FNHvMGEqk1eh-1">
          <mxGeometry x="220" y="80" width="120" height="60" as="geometry" />
        </mxCell>
        <mxCell id="aVaaEnOwZpLvD6cCBPxw-41" style="edgeStyle=orthogonalEdgeStyle;rounded=0;orthogonalLoop=1;jettySize=auto;html=1;exitX=0.5;exitY=1;exitDx=0;exitDy=0;entryX=0.5;entryY=0;entryDx=0;entryDy=0;" edge="1" parent="2rJDywC0FNHvMGEqk1eh-1" source="aVaaEnOwZpLvD6cCBPxw-2" target="aVaaEnOwZpLvD6cCBPxw-40">
          <mxGeometry relative="1" as="geometry" />
        </mxCell>
        <mxCell id="aVaaEnOwZpLvD6cCBPxw-2" value="&lt;div&gt;Diesel Oil&lt;/div&gt;&lt;div&gt;Amount: Med&lt;br&gt;&lt;/div&gt;" style="ellipse;whiteSpace=wrap;html=1;rounded=0;" vertex="1" parent="2rJDywC0FNHvMGEqk1eh-1">
          <mxGeometry x="20" y="420" width="120" height="80" as="geometry" />
        </mxCell>
        <mxCell id="aVaaEnOwZpLvD6cCBPxw-6" value="&lt;div&gt;Multiblock Distillation&lt;/div&gt;&lt;div&gt;Tower - No Single Block&lt;/div&gt;&lt;div&gt;Processing&lt;/div&gt;" style="text;html=1;align=center;verticalAlign=middle;resizable=0;points=[];autosize=1;" vertex="1" parent="2rJDywC0FNHvMGEqk1eh-1">
          <mxGeometry x="205" y="20" width="150" height="50" as="geometry" />
        </mxCell>
        <mxCell id="aVaaEnOwZpLvD6cCBPxw-42" style="edgeStyle=orthogonalEdgeStyle;rounded=0;orthogonalLoop=1;jettySize=auto;html=1;exitX=0.5;exitY=1;exitDx=0;exitDy=0;entryX=0.5;entryY=0;entryDx=0;entryDy=0;" edge="1" parent="2rJDywC0FNHvMGEqk1eh-1" source="aVaaEnOwZpLvD6cCBPxw-7" target="aVaaEnOwZpLvD6cCBPxw-40">
          <mxGeometry relative="1" as="geometry" />
        </mxCell>
        <mxCell id="aVaaEnOwZpLvD6cCBPxw-7" value="&lt;div&gt;Kerosene&lt;/div&gt;&lt;div&gt;Amount: Low&lt;br&gt;&lt;/div&gt;" style="ellipse;whiteSpace=wrap;html=1;rounded=0;" vertex="1" parent="2rJDywC0FNHvMGEqk1eh-1">
          <mxGeometry x="150" y="420" width="120" height="80" as="geometry" />
        </mxCell>
        <mxCell id="aVaaEnOwZpLvD6cCBPxw-43" style="edgeStyle=orthogonalEdgeStyle;rounded=0;orthogonalLoop=1;jettySize=auto;html=1;exitX=0.5;exitY=1;exitDx=0;exitDy=0;entryX=0.5;entryY=0;entryDx=0;entryDy=0;" edge="1" parent="2rJDywC0FNHvMGEqk1eh-1" source="aVaaEnOwZpLvD6cCBPxw-9" target="aVaaEnOwZpLvD6cCBPxw-40">
          <mxGeometry relative="1" as="geometry" />
        </mxCell>
        <mxCell id="aVaaEnOwZpLvD6cCBPxw-9" value="&lt;div&gt;Naphtha&lt;/div&gt;&lt;div&gt;Amount: Low&lt;br&gt;&lt;/div&gt;" style="ellipse;whiteSpace=wrap;html=1;rounded=0;" vertex="1" parent="2rJDywC0FNHvMGEqk1eh-1">
          <mxGeometry x="290" y="420" width="120" height="80" as="geometry" />
        </mxCell>
        <mxCell id="aVaaEnOwZpLvD6cCBPxw-45" style="edgeStyle=orthogonalEdgeStyle;rounded=0;orthogonalLoop=1;jettySize=auto;html=1;exitX=0.5;exitY=1;exitDx=0;exitDy=0;entryX=0.5;entryY=0;entryDx=0;entryDy=0;" edge="1" parent="2rJDywC0FNHvMGEqk1eh-1" source="aVaaEnOwZpLvD6cCBPxw-10" target="aVaaEnOwZpLvD6cCBPxw-40">
          <mxGeometry relative="1" as="geometry" />
        </mxCell>
        <mxCell id="aVaaEnOwZpLvD6cCBPxw-10" value="&lt;div&gt;Sulfuric Gas&lt;/div&gt;&lt;div&gt;Amount: Medium&lt;br&gt;&lt;/div&gt;" style="ellipse;whiteSpace=wrap;html=1;rounded=0;" vertex="1" parent="2rJDywC0FNHvMGEqk1eh-1">
          <mxGeometry x="420" y="420" width="120" height="80" as="geometry" />
        </mxCell>
        <mxCell id="aVaaEnOwZpLvD6cCBPxw-68" style="edgeStyle=orthogonalEdgeStyle;rounded=0;orthogonalLoop=1;jettySize=auto;html=1;exitX=0;exitY=0.5;exitDx=0;exitDy=0;entryX=1;entryY=0.5;entryDx=0;entryDy=0;" edge="1" parent="2rJDywC0FNHvMGEqk1eh-1" source="aVaaEnOwZpLvD6cCBPxw-18" target="aVaaEnOwZpLvD6cCBPxw-30">
          <mxGeometry relative="1" as="geometry" />
        </mxCell>
        <mxCell id="aVaaEnOwZpLvD6cCBPxw-18" value="&lt;div&gt;Fluid&lt;/div&gt;&lt;div&gt;Heater&lt;br&gt;&lt;/div&gt;" style="rhombus;whiteSpace=wrap;html=1;" vertex="1" parent="2rJDywC0FNHvMGEqk1eh-1">
          <mxGeometry x="355" y="270" width="80" height="80" as="geometry" />
        </mxCell>
        <mxCell id="aVaaEnOwZpLvD6cCBPxw-22" value="&lt;div&gt;TODO:&lt;/div&gt;&lt;div&gt;Research&lt;/div&gt;&lt;div&gt;System&lt;br&gt;&lt;/div&gt;" style="text;html=1;strokeColor=none;fillColor=none;align=center;verticalAlign=middle;whiteSpace=wrap;rounded=0;" vertex="1" parent="2rJDywC0FNHvMGEqk1eh-1">
          <mxGeometry x="10" y="-80" width="110" height="230" as="geometry" />
        </mxCell>
        <mxCell id="aVaaEnOwZpLvD6cCBPxw-27" value="Crude" style="shape=hexagon;perimeter=hexagonPerimeter2;whiteSpace=wrap;html=1;fixedSize=1;" vertex="1" parent="2rJDywC0FNHvMGEqk1eh-1">
          <mxGeometry x="50" y="270" width="120" height="80" as="geometry" />
        </mxCell>
        <mxCell id="aVaaEnOwZpLvD6cCBPxw-29" value="Starting Resource" style="rounded=0;whiteSpace=wrap;html=1;" vertex="1" parent="2rJDywC0FNHvMGEqk1eh-1">
          <mxGeometry x="40" y="-200" width="120" height="60" as="geometry" />
        </mxCell>
        <mxCell id="aVaaEnOwZpLvD6cCBPxw-31" style="edgeStyle=orthogonalEdgeStyle;rounded=0;orthogonalLoop=1;jettySize=auto;html=1;exitX=0;exitY=0.5;exitDx=0;exitDy=0;entryX=1;entryY=0.5;entryDx=0;entryDy=0;" edge="1" parent="2rJDywC0FNHvMGEqk1eh-1" source="aVaaEnOwZpLvD6cCBPxw-30" target="aVaaEnOwZpLvD6cCBPxw-27">
          <mxGeometry relative="1" as="geometry" />
        </mxCell>
        <mxCell id="aVaaEnOwZpLvD6cCBPxw-32" style="edgeStyle=orthogonalEdgeStyle;rounded=0;orthogonalLoop=1;jettySize=auto;html=1;exitX=0.5;exitY=1;exitDx=0;exitDy=0;entryX=0.5;entryY=0;entryDx=0;entryDy=0;" edge="1" parent="2rJDywC0FNHvMGEqk1eh-1" source="aVaaEnOwZpLvD6cCBPxw-30" target="aVaaEnOwZpLvD6cCBPxw-2">
          <mxGeometry relative="1" as="geometry" />
        </mxCell>
        <mxCell id="aVaaEnOwZpLvD6cCBPxw-33" style="edgeStyle=orthogonalEdgeStyle;rounded=0;orthogonalLoop=1;jettySize=auto;html=1;exitX=0.5;exitY=1;exitDx=0;exitDy=0;entryX=0.5;entryY=0;entryDx=0;entryDy=0;" edge="1" parent="2rJDywC0FNHvMGEqk1eh-1" source="aVaaEnOwZpLvD6cCBPxw-30" target="aVaaEnOwZpLvD6cCBPxw-7">
          <mxGeometry relative="1" as="geometry" />
        </mxCell>
        <mxCell id="aVaaEnOwZpLvD6cCBPxw-34" style="edgeStyle=orthogonalEdgeStyle;rounded=0;orthogonalLoop=1;jettySize=auto;html=1;exitX=0.5;exitY=1;exitDx=0;exitDy=0;entryX=0.5;entryY=0;entryDx=0;entryDy=0;" edge="1" parent="2rJDywC0FNHvMGEqk1eh-1" source="aVaaEnOwZpLvD6cCBPxw-30" target="aVaaEnOwZpLvD6cCBPxw-9">
          <mxGeometry relative="1" as="geometry" />
        </mxCell>
        <mxCell id="aVaaEnOwZpLvD6cCBPxw-35" style="edgeStyle=orthogonalEdgeStyle;rounded=0;orthogonalLoop=1;jettySize=auto;html=1;exitX=0.5;exitY=1;exitDx=0;exitDy=0;entryX=0.5;entryY=0;entryDx=0;entryDy=0;" edge="1" parent="2rJDywC0FNHvMGEqk1eh-1" source="aVaaEnOwZpLvD6cCBPxw-30" target="aVaaEnOwZpLvD6cCBPxw-10">
          <mxGeometry relative="1" as="geometry" />
        </mxCell>
        <mxCell id="aVaaEnOwZpLvD6cCBPxw-30" value="&lt;div&gt;Distillation&lt;/div&gt;&lt;div&gt;Tower&lt;br&gt;&lt;/div&gt;" style="rhombus;whiteSpace=wrap;html=1;" vertex="1" parent="2rJDywC0FNHvMGEqk1eh-1">
          <mxGeometry x="240" y="270" width="80" height="80" as="geometry" />
        </mxCell>
        <mxCell id="aVaaEnOwZpLvD6cCBPxw-36" value="Processing Machine" style="rhombus;whiteSpace=wrap;html=1;" vertex="1" parent="2rJDywC0FNHvMGEqk1eh-1">
          <mxGeometry x="60" y="-120" width="80" height="80" as="geometry" />
        </mxCell>
        <mxCell id="aVaaEnOwZpLvD6cCBPxw-37" value="Fluid Product" style="ellipse;whiteSpace=wrap;html=1;" vertex="1" parent="2rJDywC0FNHvMGEqk1eh-1">
          <mxGeometry x="170" y="-110" width="120" height="80" as="geometry" />
        </mxCell>
        <mxCell id="aVaaEnOwZpLvD6cCBPxw-38" value="Item Product" style="shape=hexagon;perimeter=hexagonPerimeter2;whiteSpace=wrap;html=1;fixedSize=1;" vertex="1" parent="2rJDywC0FNHvMGEqk1eh-1">
          <mxGeometry x="180" y="-200" width="120" height="80" as="geometry" />
        </mxCell>
        <mxCell id="aVaaEnOwZpLvD6cCBPxw-39" value="Sulfuric" style="text;html=1;strokeColor=none;fillColor=none;align=center;verticalAlign=middle;whiteSpace=wrap;rounded=0;" vertex="1" parent="2rJDywC0FNHvMGEqk1eh-1">
          <mxGeometry x="230" y="360" width="40" height="20" as="geometry" />
        </mxCell>
        <mxCell id="aVaaEnOwZpLvD6cCBPxw-47" style="edgeStyle=orthogonalEdgeStyle;rounded=0;orthogonalLoop=1;jettySize=auto;html=1;exitX=0.5;exitY=1;exitDx=0;exitDy=0;" edge="1" parent="2rJDywC0FNHvMGEqk1eh-1" source="aVaaEnOwZpLvD6cCBPxw-40" target="aVaaEnOwZpLvD6cCBPxw-46">
          <mxGeometry relative="1" as="geometry" />
        </mxCell>
        <mxCell id="aVaaEnOwZpLvD6cCBPxw-49" style="edgeStyle=orthogonalEdgeStyle;rounded=0;orthogonalLoop=1;jettySize=auto;html=1;exitX=0.5;exitY=1;exitDx=0;exitDy=0;" edge="1" parent="2rJDywC0FNHvMGEqk1eh-1" source="aVaaEnOwZpLvD6cCBPxw-40" target="aVaaEnOwZpLvD6cCBPxw-48">
          <mxGeometry relative="1" as="geometry" />
        </mxCell>
        <mxCell id="aVaaEnOwZpLvD6cCBPxw-51" style="edgeStyle=orthogonalEdgeStyle;rounded=0;orthogonalLoop=1;jettySize=auto;html=1;exitX=0.5;exitY=1;exitDx=0;exitDy=0;" edge="1" parent="2rJDywC0FNHvMGEqk1eh-1" source="aVaaEnOwZpLvD6cCBPxw-40" target="aVaaEnOwZpLvD6cCBPxw-50">
          <mxGeometry relative="1" as="geometry" />
        </mxCell>
        <mxCell id="aVaaEnOwZpLvD6cCBPxw-53" style="edgeStyle=orthogonalEdgeStyle;rounded=0;orthogonalLoop=1;jettySize=auto;html=1;exitX=0.5;exitY=1;exitDx=0;exitDy=0;" edge="1" parent="2rJDywC0FNHvMGEqk1eh-1" source="aVaaEnOwZpLvD6cCBPxw-40" target="aVaaEnOwZpLvD6cCBPxw-52">
          <mxGeometry relative="1" as="geometry" />
        </mxCell>
        <mxCell id="aVaaEnOwZpLvD6cCBPxw-59" style="edgeStyle=orthogonalEdgeStyle;rounded=0;orthogonalLoop=1;jettySize=auto;html=1;exitX=1;exitY=0.5;exitDx=0;exitDy=0;entryX=0;entryY=0.5;entryDx=0;entryDy=0;" edge="1" parent="2rJDywC0FNHvMGEqk1eh-1" source="aVaaEnOwZpLvD6cCBPxw-40" target="aVaaEnOwZpLvD6cCBPxw-58">
          <mxGeometry relative="1" as="geometry" />
        </mxCell>
        <mxCell id="aVaaEnOwZpLvD6cCBPxw-40" value="Desulfur Process" style="rhombus;whiteSpace=wrap;html=1;" vertex="1" parent="2rJDywC0FNHvMGEqk1eh-1">
          <mxGeometry x="240" y="550" width="80" height="80" as="geometry" />
        </mxCell>
        <mxCell id="aVaaEnOwZpLvD6cCBPxw-46" value="&lt;div&gt;Diesel Oil&lt;/div&gt;&lt;div&gt;Amount: Med&lt;br&gt;&lt;/div&gt;" style="ellipse;whiteSpace=wrap;html=1;rounded=0;" vertex="1" parent="2rJDywC0FNHvMGEqk1eh-1">
          <mxGeometry x="20" y="700" width="120" height="80" as="geometry" />
        </mxCell>
        <mxCell id="aVaaEnOwZpLvD6cCBPxw-48" value="&lt;div&gt;Kerosene&lt;/div&gt;&lt;div&gt;Amount: Low&lt;br&gt;&lt;/div&gt;" style="ellipse;whiteSpace=wrap;html=1;rounded=0;" vertex="1" parent="2rJDywC0FNHvMGEqk1eh-1">
          <mxGeometry x="150" y="700" width="120" height="80" as="geometry" />
        </mxCell>
        <mxCell id="aVaaEnOwZpLvD6cCBPxw-50" value="&lt;div&gt;Naphtha&lt;/div&gt;&lt;div&gt;Amount: Low&lt;br&gt;&lt;/div&gt;" style="ellipse;whiteSpace=wrap;html=1;rounded=0;" vertex="1" parent="2rJDywC0FNHvMGEqk1eh-1">
          <mxGeometry x="290" y="700" width="120" height="80" as="geometry" />
        </mxCell>
        <mxCell id="aVaaEnOwZpLvD6cCBPxw-52" value="&lt;div&gt;Refinery Gas&lt;/div&gt;&lt;div&gt;Amount: Medium&lt;br&gt;&lt;/div&gt;" style="ellipse;whiteSpace=wrap;html=1;rounded=0;" vertex="1" parent="2rJDywC0FNHvMGEqk1eh-1">
          <mxGeometry x="420" y="700" width="120" height="80" as="geometry" />
        </mxCell>
        <mxCell id="aVaaEnOwZpLvD6cCBPxw-55" value="&lt;div&gt;External &lt;br&gt;&lt;/div&gt;&lt;div&gt;Processing &lt;br&gt;&lt;/div&gt;&lt;div&gt;Input&lt;/div&gt;" style="shape=step;perimeter=stepPerimeter;whiteSpace=wrap;html=1;fixedSize=1;" vertex="1" parent="2rJDywC0FNHvMGEqk1eh-1">
          <mxGeometry x="320" y="-200" width="120" height="80" as="geometry" />
        </mxCell>
        <mxCell id="aVaaEnOwZpLvD6cCBPxw-57" style="edgeStyle=orthogonalEdgeStyle;rounded=0;orthogonalLoop=1;jettySize=auto;html=1;exitX=1;exitY=0.5;exitDx=0;exitDy=0;entryX=0;entryY=0.5;entryDx=0;entryDy=0;" edge="1" parent="2rJDywC0FNHvMGEqk1eh-1" source="aVaaEnOwZpLvD6cCBPxw-56" target="aVaaEnOwZpLvD6cCBPxw-40">
          <mxGeometry relative="1" as="geometry" />
        </mxCell>
        <mxCell id="aVaaEnOwZpLvD6cCBPxw-56" value="&lt;div&gt;Hydrogen&lt;/div&gt;&lt;div&gt; Gas&lt;/div&gt;" style="shape=step;perimeter=stepPerimeter;whiteSpace=wrap;html=1;fixedSize=1;" vertex="1" parent="2rJDywC0FNHvMGEqk1eh-1">
          <mxGeometry x="85" y="550" width="120" height="80" as="geometry" />
        </mxCell>
        <mxCell id="aVaaEnOwZpLvD6cCBPxw-58" value="Hydrogen Sulfide" style="ellipse;whiteSpace=wrap;html=1;" vertex="1" parent="2rJDywC0FNHvMGEqk1eh-1">
          <mxGeometry x="355" y="550" width="120" height="80" as="geometry" />
        </mxCell>
        <mxCell id="aVaaEnOwZpLvD6cCBPxw-69" style="edgeStyle=orthogonalEdgeStyle;rounded=0;orthogonalLoop=1;jettySize=auto;html=1;exitX=1;exitY=0.5;exitDx=0;exitDy=0;entryX=0.5;entryY=0;entryDx=0;entryDy=0;" edge="1" parent="2rJDywC0FNHvMGEqk1eh-1" source="aVaaEnOwZpLvD6cCBPxw-62" target="aVaaEnOwZpLvD6cCBPxw-18">
          <mxGeometry relative="1" as="geometry" />
        </mxCell>
        <mxCell id="aVaaEnOwZpLvD6cCBPxw-74" style="edgeStyle=orthogonalEdgeStyle;rounded=0;orthogonalLoop=1;jettySize=auto;html=1;exitX=1;exitY=0.5;exitDx=0;exitDy=0;entryX=0.5;entryY=0;entryDx=0;entryDy=0;" edge="1" parent="2rJDywC0FNHvMGEqk1eh-1" source="aVaaEnOwZpLvD6cCBPxw-62" target="aVaaEnOwZpLvD6cCBPxw-70">
          <mxGeometry relative="1" as="geometry" />
        </mxCell>
        <mxCell id="aVaaEnOwZpLvD6cCBPxw-62" value="&lt;div&gt;Mixer&lt;/div&gt;&lt;div&gt;(Desalt)&lt;br&gt;&lt;/div&gt;" style="rhombus;whiteSpace=wrap;html=1;" vertex="1" parent="2rJDywC0FNHvMGEqk1eh-1">
          <mxGeometry x="240" y="170" width="80" height="80" as="geometry" />
        </mxCell>
        <mxCell id="aVaaEnOwZpLvD6cCBPxw-66" style="edgeStyle=orthogonalEdgeStyle;rounded=0;orthogonalLoop=1;jettySize=auto;html=1;exitX=1;exitY=0.5;exitDx=0;exitDy=0;entryX=0;entryY=0.5;entryDx=0;entryDy=0;" edge="1" parent="2rJDywC0FNHvMGEqk1eh-1" source="aVaaEnOwZpLvD6cCBPxw-65" target="aVaaEnOwZpLvD6cCBPxw-62">
          <mxGeometry relative="1" as="geometry" />
        </mxCell>
        <mxCell id="aVaaEnOwZpLvD6cCBPxw-65" value="Water" style="shape=step;perimeter=stepPerimeter;whiteSpace=wrap;html=1;fixedSize=1;rotation=0;" vertex="1" parent="2rJDywC0FNHvMGEqk1eh-1">
          <mxGeometry x="50" y="170" width="120" height="80" as="geometry" />
        </mxCell>
        <mxCell id="aVaaEnOwZpLvD6cCBPxw-70" value="Salt Water" style="ellipse;whiteSpace=wrap;html=1;" vertex="1" parent="2rJDywC0FNHvMGEqk1eh-1">
          <mxGeometry x="450" y="270" width="120" height="80" as="geometry" />
        </mxCell>
      </root>
    </mxGraphModel>
  </diagram>
</mxfile>
